<svg xmlns="http://www.w3.org/2000/svg" width="16" height="16" viewBox="0 0 24 24" fill="none">
  <path d="M23.6 12.27c0-.82-.07-1.42-.22-2.04H12v3.7h6.62c-.13.94-.83 2.34-2.39 3.27l-.02.14 3.47 2.69.24.02c2.2-2.03 3.47-5.01 3.47-7.98z" fill="#4285F4"/>
  <path d="M12 24c3.24 0 5.96-1.07 7.94-2.91l-3.78-2.92c-1.01.66-2.38 1.12-4.16 1.12-3.18 0-5.87-2.03-6.83-4.83l-.14.01-3.7 2.86-.05.13C2.99 21.53 7.16 24 12 24z" fill="#34A853"/>
  <path d="M5.17 14.46A7.21 7.21 0 0 1 4.77 12c0-.86.15-1.7.39-2.46l-.01-.16-3.75-2.9-.12.05A11.95 11.95 0 0 0 0 12c0 1.9.46 3.7 1.27 5.27l3.9-2.81z" fill="#FBBC05"/>
  <path d="M12 4.74c2.25 0 3.76.97 4.63 1.78l3.38-3.28C17.95 1.17 15.24 0 12 0 7.16 0 2.99 2.47 1.27 6.73l3.89 2.81C6.13 6.75 8.82 4.74 12 4.74z" fill="#EA4335"/>
</svg>
