<svg xmlns="http://www.w3.org/2000/svg" xmlns:xlink="http://www.w3.org/1999/xlink" width="500" zoomAndPan="magnify" viewBox="0 0 375 374.999991" height="500" preserveAspectRatio="xMidYMid meet" version="1.0"><defs><g/><clipPath id="25a22e1219"><path d="M 146.496094 0.296875 L 179.996094 0.296875 L 179.996094 156.660156 L 146.496094 156.660156 Z M 146.496094 0.296875 " clip-rule="nonzero"/></clipPath><clipPath id="76aa6528e7"><path d="M 146.496094 143.410156 L 146.496094 0.382812 L 179.996094 13.636719 L 179.996094 156.660156 Z M 146.496094 143.410156 " clip-rule="nonzero"/></clipPath><clipPath id="044d1e935f"><path d="M 0.496094 0.359375 L 33.996094 0.359375 L 33.996094 156.660156 L 0.496094 156.660156 Z M 0.496094 0.359375 " clip-rule="nonzero"/></clipPath><clipPath id="afc4bd9b87"><path d="M 0.496094 143.410156 L 0.496094 0.382812 L 33.996094 13.636719 L 33.996094 156.660156 Z M 0.496094 143.410156 " clip-rule="nonzero"/></clipPath><clipPath id="f78ec05459"><rect x="0" width="34" y="0" height="157"/></clipPath><clipPath id="759b9a0d1b"><path d="M 58.617188 15.777344 L 92.113281 15.777344 L 92.113281 169.917969 L 58.617188 169.917969 Z M 58.617188 15.777344 " clip-rule="nonzero"/></clipPath><clipPath id="11e3760013"><path d="M 58.617188 156.664062 L 58.617188 15.84375 L 92.113281 29.09375 L 92.113281 169.917969 Z M 58.617188 156.664062 " clip-rule="nonzero"/></clipPath><clipPath id="64caae1cb4"><path d="M 0.617188 0.777344 L 34.113281 0.777344 L 34.113281 154.917969 L 0.617188 154.917969 Z M 0.617188 0.777344 " clip-rule="nonzero"/></clipPath><clipPath id="4b506523d6"><path d="M 0.617188 141.664062 L 0.617188 0.84375 L 34.113281 14.09375 L 34.113281 154.917969 Z M 0.617188 141.664062 " clip-rule="nonzero"/></clipPath><clipPath id="1734ac40c0"><rect x="0" width="35" y="0" height="155"/></clipPath><clipPath id="5585d2e1a4"><path d="M 102.558594 45.789062 L 136.054688 45.789062 L 136.054688 111.214844 L 102.558594 111.214844 Z M 102.558594 45.789062 " clip-rule="nonzero"/></clipPath><clipPath id="325feae4dc"><path d="M 102.558594 97.960938 L 102.558594 45.832031 L 136.054688 59.085938 L 136.054688 111.214844 Z M 102.558594 97.960938 " clip-rule="nonzero"/></clipPath><clipPath id="6b7b6f87f2"><path d="M 0.558594 0.789062 L 34.054688 0.789062 L 34.054688 66.214844 L 0.558594 66.214844 Z M 0.558594 0.789062 " clip-rule="nonzero"/></clipPath><clipPath id="770bf4fd4c"><path d="M 0.558594 52.960938 L 0.558594 0.832031 L 34.054688 14.085938 L 34.054688 66.214844 Z M 0.558594 52.960938 " clip-rule="nonzero"/></clipPath><clipPath id="bbd4b49028"><rect x="0" width="35" y="0" height="67"/></clipPath><clipPath id="c03bc84fee"><path d="M 146.882812 72.132812 L 180.382812 72.132812 L 180.382812 156.660156 L 146.882812 156.660156 Z M 146.882812 72.132812 " clip-rule="nonzero"/></clipPath><clipPath id="2ddbf518d6"><path d="M 146.882812 143.410156 L 146.882812 72.199219 L 180.382812 85.449219 L 180.382812 156.660156 Z M 146.882812 143.410156 " clip-rule="nonzero"/></clipPath><clipPath id="9903722416"><path d="M 0.882812 0.132812 L 34.382812 0.132812 L 34.382812 84.660156 L 0.882812 84.660156 Z M 0.882812 0.132812 " clip-rule="nonzero"/></clipPath><clipPath id="72c850d5c5"><path d="M 0.882812 71.410156 L 0.882812 0.199219 L 34.382812 13.449219 L 34.382812 84.660156 Z M 0.882812 71.410156 " clip-rule="nonzero"/></clipPath><clipPath id="903c1bed57"><rect x="0" width="35" y="0" height="85"/></clipPath><clipPath id="a6e4ac3dd6"><path d="M 116.539062 125.671875 L 155.4375 125.671875 L 155.4375 174.464844 L 116.539062 174.464844 Z M 116.539062 125.671875 " clip-rule="nonzero"/></clipPath><clipPath id="8f47d02f17"><path d="M 0.671875 0.675781 L 39.4375 0.675781 L 39.4375 49.136719 L 0.671875 49.136719 Z M 0.671875 0.675781 " clip-rule="nonzero"/></clipPath><clipPath id="6669882815"><rect x="0" width="40" y="0" height="50"/></clipPath><clipPath id="c59d2bb780"><path d="M 0.878906 184 L 240.160156 184 L 240.160156 230 L 0.878906 230 Z M 0.878906 184 " clip-rule="nonzero"/></clipPath><clipPath id="a0431fab14"><rect x="0" width="241" y="0" height="46"/></clipPath><clipPath id="c66d491960"><path d="M 155.574219 225.84375 L 240.050781 225.84375 L 240.050781 236.613281 L 155.574219 236.613281 Z M 155.574219 225.84375 " clip-rule="nonzero"/></clipPath><clipPath id="2a0332dc23"><path d="M 168.824219 225.84375 L 240.035156 225.84375 L 226.78125 236.613281 L 155.574219 236.613281 Z M 168.824219 225.84375 " clip-rule="nonzero"/></clipPath><clipPath id="d82fef6154"><path d="M 0.574219 0.84375 L 85.050781 0.84375 L 85.050781 11.613281 L 0.574219 11.613281 Z M 0.574219 0.84375 " clip-rule="nonzero"/></clipPath><clipPath id="f4acfd56c5"><path d="M 13.824219 0.84375 L 85.035156 0.84375 L 71.78125 11.613281 L 0.574219 11.613281 Z M 13.824219 0.84375 " clip-rule="nonzero"/></clipPath><clipPath id="cfe8637bfd"><rect x="0" width="86" y="0" height="12"/></clipPath><clipPath id="f757d4f3a0"><rect x="0" width="241" y="0" height="237"/></clipPath></defs><rect x="-37.5" width="450" fill="#ffffff" y="-37.499999" height="449.999989" fill-opacity="1"/><rect x="-37.5" width="450" fill="#001b3d" y="-37.499999" height="449.999989" fill-opacity="1"/><g transform="matrix(1, 0, 0, 1, 68, 69)"><g clip-path="url(#f757d4f3a0)"><g clip-path="url(#25a22e1219)"><g clip-path="url(#76aa6528e7)"><g transform="matrix(1, 0, 0, 1, 146, 0)"><g clip-path="url(#f78ec05459)"><g clip-path="url(#044d1e935f)"><g clip-path="url(#afc4bd9b87)"><path fill="#d9d9d9" d="M 0.496094 156.660156 L 0.496094 0.429688 L 33.996094 0.429688 L 33.996094 156.660156 Z M 0.496094 156.660156 " fill-opacity="1" fill-rule="nonzero"/></g></g></g></g></g></g><g clip-path="url(#759b9a0d1b)"><g clip-path="url(#11e3760013)"><g transform="matrix(1, 0, 0, 1, 58, 15)"><g clip-path="url(#1734ac40c0)"><g clip-path="url(#64caae1cb4)"><g clip-path="url(#4b506523d6)"><path fill="#d9d9d9" d="M 0.617188 154.917969 L 0.617188 0.777344 L 34.113281 0.777344 L 34.113281 154.917969 Z M 0.617188 154.917969 " fill-opacity="1" fill-rule="nonzero"/></g></g></g></g></g></g><g clip-path="url(#5585d2e1a4)"><g clip-path="url(#325feae4dc)"><g transform="matrix(1, 0, 0, 1, 102, 45)"><g clip-path="url(#bbd4b49028)"><g clip-path="url(#6b7b6f87f2)"><g clip-path="url(#770bf4fd4c)"><path fill="#d9d9d9" d="M 0.558594 66.214844 L 0.558594 0.789062 L 34.054688 0.789062 L 34.054688 66.214844 Z M 0.558594 66.214844 " fill-opacity="1" fill-rule="nonzero"/></g></g></g></g></g></g><g clip-path="url(#c03bc84fee)"><g clip-path="url(#2ddbf518d6)"><g transform="matrix(1, 0, 0, 1, 146, 72)"><g clip-path="url(#903c1bed57)"><g clip-path="url(#9903722416)"><g clip-path="url(#72c850d5c5)"><path fill="#8c52ff" d="M 0.882812 84.660156 L 0.882812 0.132812 L 34.382812 0.132812 L 34.382812 84.660156 Z M 0.882812 84.660156 " fill-opacity="1" fill-rule="nonzero"/></g></g></g></g></g></g><g clip-path="url(#a6e4ac3dd6)"><g transform="matrix(1, 0, 0, 1, 116, 125)"><g clip-path="url(#6669882815)"><g clip-path="url(#8f47d02f17)"><path fill="#d9d9d9" d="M 0.53125 22.910156 L 39.570312 0.675781 L 34.226562 44.839844 L 23.5625 32.738281 L 23.507812 32.699219 L 12.816406 49.136719 L 5.277344 44.234375 L 16.015625 27.722656 L 15.96875 27.691406 L 0.53125 22.910156 " fill-opacity="1" fill-rule="nonzero"/></g></g></g></g><g clip-path="url(#c59d2bb780)"><g transform="matrix(1, 0, 0, 1, 0, 184)"><g clip-path="url(#a0431fab14)"><g fill="#8c52ff" fill-opacity="1"><g transform="translate(1.583283, 36.909383)"><g><path d="M 21.671875 0 L 21.671875 -10.515625 L 11.890625 -10.515625 L 11.890625 0 L 2.984375 0 L 2.984375 -27.71875 L 11.890625 -27.71875 L 11.890625 -17.609375 L 21.671875 -17.609375 L 21.671875 -27.71875 L 30.578125 -27.71875 L 30.578125 0 Z M 21.671875 0 "/></g></g></g><g fill="#8c52ff" fill-opacity="1"><g transform="translate(37.145709, 36.909383)"><g><path d="M 9.265625 -30.046875 L 9.265625 -35.65625 L 15.390625 -35.65625 L 15.390625 -30.046875 Z M 18.171875 -30.046875 L 18.171875 -35.65625 L 24.296875 -35.65625 L 24.296875 -30.046875 Z M 30.578125 -11.15625 C 30.578125 -7.375 29.378906 -4.488281 26.984375 -2.5 C 24.597656 -0.507812 21.203125 0.484375 16.796875 0.484375 C 12.390625 0.484375 8.984375 -0.507812 6.578125 -2.5 C 4.179688 -4.488281 2.984375 -7.375 2.984375 -11.15625 L 2.984375 -27.71875 L 11.890625 -27.71875 L 11.890625 -11.28125 C 11.890625 -9.71875 12.300781 -8.472656 13.125 -7.546875 C 13.957031 -6.617188 15.164062 -6.15625 16.75 -6.15625 C 18.34375 -6.15625 19.5625 -6.625 20.40625 -7.5625 C 21.25 -8.507812 21.671875 -9.75 21.671875 -11.28125 L 21.671875 -27.71875 L 30.578125 -27.71875 Z M 30.578125 -11.15625 "/></g></g></g><g fill="#8c52ff" fill-opacity="1"><g transform="translate(72.708134, 36.909383)"><g><path d="M 16.921875 -28.203125 C 19.578125 -28.203125 21.960938 -27.796875 24.078125 -26.984375 C 26.203125 -26.179688 27.890625 -24.992188 29.140625 -23.421875 C 30.390625 -21.847656 31.015625 -19.9375 31.015625 -17.6875 L 22.515625 -17.6875 C 22.515625 -18.84375 22.003906 -19.773438 20.984375 -20.484375 C 19.960938 -21.191406 18.726562 -21.546875 17.28125 -21.546875 C 15.1875 -21.546875 13.601562 -20.988281 12.53125 -19.875 C 11.457031 -18.757812 10.921875 -17.179688 10.921875 -15.140625 L 10.921875 -12.5625 C 10.921875 -10.519531 11.457031 -8.941406 12.53125 -7.828125 C 13.601562 -6.710938 15.1875 -6.15625 17.28125 -6.15625 C 18.726562 -6.15625 19.960938 -6.5 20.984375 -7.1875 C 22.003906 -7.875 22.515625 -8.753906 22.515625 -9.828125 L 16.234375 -9.828125 L 16.234375 -15.46875 L 31.015625 -15.46875 L 31.015625 0 L 26.421875 0 L 25.53125 -2.734375 C 23.007812 -0.585938 19.707031 0.484375 15.625 0.484375 C 11.03125 0.484375 7.578125 -0.71875 5.265625 -3.125 C 2.960938 -5.53125 1.8125 -9.109375 1.8125 -13.859375 C 1.8125 -18.554688 3.117188 -22.117188 5.734375 -24.546875 C 8.359375 -26.984375 12.085938 -28.203125 16.921875 -28.203125 Z M 16.921875 -28.203125 "/></g></g></g><g fill="#8c52ff" fill-opacity="1"><g transform="translate(108.27056, 36.909383)"><g><path d="M 16.75 -28.203125 C 21.53125 -28.203125 25.222656 -26.976562 27.828125 -24.53125 C 30.429688 -22.082031 31.734375 -18.523438 31.734375 -13.859375 C 31.734375 -9.179688 30.429688 -5.617188 27.828125 -3.171875 C 25.222656 -0.734375 21.53125 0.484375 16.75 0.484375 C 11.976562 0.484375 8.296875 -0.726562 5.703125 -3.15625 C 3.109375 -5.59375 1.8125 -9.160156 1.8125 -13.859375 C 1.8125 -18.554688 3.109375 -22.117188 5.703125 -24.546875 C 8.296875 -26.984375 11.976562 -28.203125 16.75 -28.203125 Z M 16.75 -21.546875 C 14.84375 -21.546875 13.394531 -20.96875 12.40625 -19.8125 C 11.414062 -18.664062 10.921875 -17.109375 10.921875 -15.140625 L 10.921875 -12.5625 C 10.921875 -10.601562 11.414062 -9.046875 12.40625 -7.890625 C 13.394531 -6.734375 14.84375 -6.15625 16.75 -6.15625 C 18.65625 -6.15625 20.113281 -6.734375 21.125 -7.890625 C 22.132812 -9.046875 22.640625 -10.601562 22.640625 -12.5625 L 22.640625 -15.140625 C 22.640625 -17.109375 22.132812 -18.664062 21.125 -19.8125 C 20.113281 -20.96875 18.65625 -21.546875 16.75 -21.546875 Z M 16.75 -21.546875 "/></g></g></g><g fill="#8c52ff" fill-opacity="1"><g transform="translate(143.832986, 36.909383)"><g><path d="M 2.984375 -27.71875 L 11.890625 -27.71875 L 11.890625 -7.09375 L 26.109375 -7.09375 L 26.109375 0 L 2.984375 0 Z M 2.984375 -27.71875 "/></g></g></g><g fill="#8c52ff" fill-opacity="1"><g transform="translate(172.709928, 36.909383)"><g><path d="M 21.546875 0 L 20.375 -3.90625 L 10.671875 -3.90625 L 9.5 0 L 0.40625 0 L 10.515625 -27.71875 L 20.859375 -27.71875 L 30.96875 0 Z M 12.53125 -10.109375 L 18.53125 -10.109375 L 15.625 -19.984375 L 15.46875 -19.984375 Z M 12.53125 -10.109375 "/></g></g></g><g fill="#8c52ff" fill-opacity="1"><g transform="translate(206.057281, 36.909383)"><g><path d="M 21.421875 -27.71875 C 22.828125 -27.71875 24.113281 -27.425781 25.28125 -26.84375 C 26.445312 -26.269531 27.367188 -25.457031 28.046875 -24.40625 C 28.734375 -23.363281 29.078125 -22.195312 29.078125 -20.90625 C 29.078125 -17.5 27.535156 -15.351562 24.453125 -14.46875 L 24.453125 -14.296875 C 27.972656 -13.492188 29.734375 -11.1875 29.734375 -7.375 C 29.734375 -5.925781 29.375 -4.644531 28.65625 -3.53125 C 27.945312 -2.414062 26.972656 -1.546875 25.734375 -0.921875 C 24.503906 -0.304688 23.148438 0 21.671875 0 L 2.984375 0 L 2.984375 -27.71875 Z M 11.890625 -16.921875 L 18 -16.921875 C 18.59375 -16.921875 19.082031 -17.128906 19.46875 -17.546875 C 19.863281 -17.960938 20.0625 -18.476562 20.0625 -19.09375 L 20.0625 -19.5 C 20.0625 -20.082031 19.859375 -20.582031 19.453125 -21 C 19.054688 -21.414062 18.570312 -21.625 18 -21.625 L 11.890625 -21.625 Z M 11.890625 -6.4375 L 18.65625 -6.4375 C 19.238281 -6.4375 19.722656 -6.644531 20.109375 -7.0625 C 20.503906 -7.476562 20.703125 -8 20.703125 -8.625 L 20.703125 -9.015625 C 20.703125 -9.640625 20.503906 -10.160156 20.109375 -10.578125 C 19.722656 -10.992188 19.238281 -11.203125 18.65625 -11.203125 L 11.890625 -11.203125 Z M 11.890625 -6.4375 "/></g></g></g></g></g></g><g clip-path="url(#c66d491960)"><g clip-path="url(#2a0332dc23)"><g transform="matrix(1, 0, 0, 1, 155, 225)"><g clip-path="url(#cfe8637bfd)"><g clip-path="url(#d82fef6154)"><g clip-path="url(#f4acfd56c5)"><path fill="#8c52ff" d="M 0.574219 0.84375 L 85.050781 0.84375 L 85.050781 11.613281 L 0.574219 11.613281 Z M 0.574219 0.84375 " fill-opacity="1" fill-rule="nonzero"/></g></g></g></g></g></g></g></g></svg>