<svg xmlns="http://www.w3.org/2000/svg" xmlns:xlink="http://www.w3.org/1999/xlink" width="500" zoomAndPan="magnify" viewBox="0 0 375 374.999991" height="500" preserveAspectRatio="xMidYMid meet" version="1.0"><defs><g/><clipPath id="303a5f4d09"><path d="M 200.46875 0.640625 L 246.339844 0.640625 L 246.339844 214.757812 L 200.46875 214.757812 Z M 200.46875 0.640625 " clip-rule="nonzero"/></clipPath><clipPath id="bce84c3ca4"><path d="M 200.46875 196.609375 L 200.46875 0.753906 L 246.339844 18.902344 L 246.339844 214.757812 Z M 200.46875 196.609375 " clip-rule="nonzero"/></clipPath><clipPath id="e2ed13b94f"><path d="M 0.46875 0.679688 L 46.339844 0.679688 L 46.339844 214.757812 L 0.46875 214.757812 Z M 0.46875 0.679688 " clip-rule="nonzero"/></clipPath><clipPath id="5121e4589b"><path d="M 0.46875 196.609375 L 0.46875 0.753906 L 46.339844 18.902344 L 46.339844 214.757812 Z M 0.46875 196.609375 " clip-rule="nonzero"/></clipPath><clipPath id="a0508252c4"><rect x="0" width="47" y="0" height="215"/></clipPath><clipPath id="9e05608d72"><path d="M 80.128906 21.835938 L 126 21.835938 L 126 232.910156 L 80.128906 232.910156 Z M 80.128906 21.835938 " clip-rule="nonzero"/></clipPath><clipPath id="bdffb2d174"><path d="M 80.128906 214.761719 L 80.128906 21.925781 L 126 40.070312 L 126 232.910156 Z M 80.128906 214.761719 " clip-rule="nonzero"/></clipPath><clipPath id="1adfa1f5c3"><path d="M 0.128906 0.835938 L 46 0.835938 L 46 211.910156 L 0.128906 211.910156 Z M 0.128906 0.835938 " clip-rule="nonzero"/></clipPath><clipPath id="bdd3a0f53f"><path d="M 0.128906 193.761719 L 0.128906 0.925781 L 46 19.070312 L 46 211.910156 Z M 0.128906 193.761719 " clip-rule="nonzero"/></clipPath><clipPath id="80c19b2c6f"><rect x="0" width="46" y="0" height="212"/></clipPath><clipPath id="2d48a3e7da"><path d="M 140.300781 62.933594 L 186.171875 62.933594 L 186.171875 152.523438 L 140.300781 152.523438 Z M 140.300781 62.933594 " clip-rule="nonzero"/></clipPath><clipPath id="51c3f0747b"><path d="M 140.300781 134.375 L 140.300781 62.992188 L 186.171875 81.140625 L 186.171875 152.523438 Z M 140.300781 134.375 " clip-rule="nonzero"/></clipPath><clipPath id="bf93959c95"><path d="M 0.300781 0.933594 L 46.171875 0.933594 L 46.171875 90.523438 L 0.300781 90.523438 Z M 0.300781 0.933594 " clip-rule="nonzero"/></clipPath><clipPath id="c08d3236ee"><path d="M 0.300781 72.375 L 0.300781 0.992188 L 46.171875 19.140625 L 46.171875 90.523438 Z M 0.300781 72.375 " clip-rule="nonzero"/></clipPath><clipPath id="4086d2c88c"><rect x="0" width="47" y="0" height="91"/></clipPath><clipPath id="a95ccbd5e2"><path d="M 201 99.007812 L 246.867188 99.007812 L 246.867188 214.757812 L 201 214.757812 Z M 201 99.007812 " clip-rule="nonzero"/></clipPath><clipPath id="42802b3c57"><path d="M 201 196.609375 L 201 99.097656 L 246.867188 117.242188 L 246.867188 214.757812 Z M 201 196.609375 " clip-rule="nonzero"/></clipPath><clipPath id="f4c2837a41"><path d="M 0 0.078125 L 45.867188 0.078125 L 45.867188 115.757812 L 0 115.757812 Z M 0 0.078125 " clip-rule="nonzero"/></clipPath><clipPath id="1135813776"><path d="M 0 97.609375 L 0 0.0976562 L 45.867188 18.242188 L 45.867188 115.757812 Z M 0 97.609375 " clip-rule="nonzero"/></clipPath><clipPath id="a44cc89d57"><rect x="0" width="46" y="0" height="116"/></clipPath><clipPath id="ea92ca0f25"><path d="M 159.441406 172.324219 L 212.710938 172.324219 L 212.710938 239 L 159.441406 239 Z M 159.441406 172.324219 " clip-rule="nonzero"/></clipPath><clipPath id="c87100d4f6"><path d="M 0.625 0.328125 L 53.710938 0.328125 L 53.710938 66.6875 L 0.625 66.6875 Z M 0.625 0.328125 " clip-rule="nonzero"/></clipPath><clipPath id="61cbc4f49b"><rect x="0" width="54" y="0" height="67"/></clipPath><clipPath id="95a8e73829"><path d="M 0.960938 252 L 328.800781 252 L 328.800781 315 L 0.960938 315 Z M 0.960938 252 " clip-rule="nonzero"/></clipPath><clipPath id="8f93dc9761"><rect x="0" width="329" y="0" height="63"/></clipPath><clipPath id="ff39ac7526"><path d="M 212.898438 309.492188 L 328.582031 309.492188 L 328.582031 324.238281 L 212.898438 324.238281 Z M 212.898438 309.492188 " clip-rule="nonzero"/></clipPath><clipPath id="068c2ab9f0"><path d="M 231.042969 309.492188 L 328.554688 309.492188 L 310.410156 324.238281 L 212.898438 324.238281 Z M 231.042969 309.492188 " clip-rule="nonzero"/></clipPath><clipPath id="5b26540ae0"><path d="M 0.898438 0.492188 L 116.558594 0.492188 L 116.558594 15.238281 L 0.898438 15.238281 Z M 0.898438 0.492188 " clip-rule="nonzero"/></clipPath><clipPath id="b79ea32d6e"><path d="M 19.042969 0.492188 L 116.554688 0.492188 L 98.410156 15.238281 L 0.898438 15.238281 Z M 19.042969 0.492188 " clip-rule="nonzero"/></clipPath><clipPath id="35e5e28b2e"><rect x="0" width="117" y="0" height="16"/></clipPath><clipPath id="2d533fc27d"><rect x="0" width="329" y="0" height="325"/></clipPath></defs><g transform="matrix(1, 0, 0, 1, 24, 25)"><g clip-path="url(#2d533fc27d)"><g clip-path="url(#303a5f4d09)"><g clip-path="url(#bce84c3ca4)"><g transform="matrix(1, 0, 0, 1, 200, 0)"><g clip-path="url(#a0508252c4)"><g clip-path="url(#e2ed13b94f)"><g clip-path="url(#5121e4589b)"><path fill="#d9d9d9" d="M 0.46875 214.757812 L 0.46875 0.820312 L 46.339844 0.820312 L 46.339844 214.757812 Z M 0.46875 214.757812 " fill-opacity="1" fill-rule="nonzero"/></g></g></g></g></g></g><g clip-path="url(#9e05608d72)"><g clip-path="url(#bdffb2d174)"><g transform="matrix(1, 0, 0, 1, 80, 21)"><g clip-path="url(#80c19b2c6f)"><g clip-path="url(#1adfa1f5c3)"><g clip-path="url(#bdd3a0f53f)"><path fill="#d9d9d9" d="M 0.128906 211.910156 L 0.128906 0.835938 L 46 0.835938 L 46 211.910156 Z M 0.128906 211.910156 " fill-opacity="1" fill-rule="nonzero"/></g></g></g></g></g></g><g clip-path="url(#2d48a3e7da)"><g clip-path="url(#51c3f0747b)"><g transform="matrix(1, 0, 0, 1, 140, 62)"><g clip-path="url(#4086d2c88c)"><g clip-path="url(#bf93959c95)"><g clip-path="url(#c08d3236ee)"><path fill="#d9d9d9" d="M 0.300781 90.523438 L 0.300781 0.933594 L 46.171875 0.933594 L 46.171875 90.523438 Z M 0.300781 90.523438 " fill-opacity="1" fill-rule="nonzero"/></g></g></g></g></g></g><g clip-path="url(#a95ccbd5e2)"><g clip-path="url(#42802b3c57)"><g transform="matrix(1, 0, 0, 1, 201, 99)"><g clip-path="url(#a44cc89d57)"><g clip-path="url(#f4c2837a41)"><g clip-path="url(#1135813776)"><path fill="#8c52ff" d="M 0 115.757812 L 0 0.0078125 L 45.867188 0.0078125 L 45.867188 115.757812 Z M 0 115.757812 " fill-opacity="1" fill-rule="nonzero"/></g></g></g></g></g></g><g clip-path="url(#ea92ca0f25)"><g transform="matrix(1, 0, 0, 1, 159, 172)"><g clip-path="url(#61cbc4f49b)"><g clip-path="url(#c87100d4f6)"><path fill="#d9d9d9" d="M 0.4375 30.773438 L 53.894531 0.324219 L 46.574219 60.800781 L 31.972656 44.230469 L 31.898438 44.179688 L 17.261719 66.6875 L 6.933594 59.972656 L 21.636719 37.363281 L 21.574219 37.320312 L 0.4375 30.773438 " fill-opacity="1" fill-rule="nonzero"/></g></g></g></g><g clip-path="url(#95a8e73829)"><g transform="matrix(1, 0, 0, 1, 0, 252)"><g clip-path="url(#8f93dc9761)"><g fill="#8c52ff" fill-opacity="1"><g transform="translate(2.02897, 50.735825)"><g><path d="M 29.671875 0 L 29.671875 -14.390625 L 16.265625 -14.390625 L 16.265625 0 L 4.078125 0 L 4.078125 -37.953125 L 16.265625 -37.953125 L 16.265625 -24.109375 L 29.671875 -24.109375 L 29.671875 -37.953125 L 41.859375 -37.953125 L 41.859375 0 Z M 29.671875 0 "/></g></g></g><g fill="#8c52ff" fill-opacity="1"><g transform="translate(50.726907, 50.735825)"><g><path d="M 12.6875 -41.140625 L 12.6875 -48.8125 L 21.0625 -48.8125 L 21.0625 -41.140625 Z M 24.875 -41.140625 L 24.875 -48.8125 L 33.265625 -48.8125 L 33.265625 -41.140625 Z M 41.859375 -15.28125 C 41.859375 -10.09375 40.222656 -6.140625 36.953125 -3.421875 C 33.679688 -0.703125 29.03125 0.65625 23 0.65625 C 16.96875 0.65625 12.304688 -0.703125 9.015625 -3.421875 C 5.722656 -6.140625 4.078125 -10.09375 4.078125 -15.28125 L 4.078125 -37.953125 L 16.265625 -37.953125 L 16.265625 -15.4375 C 16.265625 -13.3125 16.832031 -11.613281 17.96875 -10.34375 C 19.113281 -9.070312 20.769531 -8.4375 22.9375 -8.4375 C 25.113281 -8.4375 26.78125 -9.078125 27.9375 -10.359375 C 29.09375 -11.648438 29.671875 -13.34375 29.671875 -15.4375 L 29.671875 -37.953125 L 41.859375 -37.953125 Z M 41.859375 -15.28125 "/></g></g></g><g fill="#8c52ff" fill-opacity="1"><g transform="translate(99.424844, 50.735825)"><g><path d="M 23.171875 -38.609375 C 26.804688 -38.609375 30.078125 -38.054688 32.984375 -36.953125 C 35.890625 -35.847656 38.195312 -34.21875 39.90625 -32.0625 C 41.613281 -29.914062 42.46875 -27.300781 42.46875 -24.21875 L 30.828125 -24.21875 C 30.828125 -25.789062 30.128906 -27.066406 28.734375 -28.046875 C 27.335938 -29.023438 25.644531 -29.515625 23.65625 -29.515625 C 20.789062 -29.515625 18.625 -28.75 17.15625 -27.21875 C 15.6875 -25.695312 14.953125 -23.535156 14.953125 -20.734375 L 14.953125 -17.203125 C 14.953125 -14.410156 15.6875 -12.25 17.15625 -10.71875 C 18.625 -9.195312 20.789062 -8.4375 23.65625 -8.4375 C 25.644531 -8.4375 27.335938 -8.90625 28.734375 -9.84375 C 30.128906 -10.78125 30.828125 -11.984375 30.828125 -13.453125 L 22.234375 -13.453125 L 22.234375 -21.1875 L 42.46875 -21.1875 L 42.46875 0 L 36.1875 0 L 34.96875 -3.75 C 31.507812 -0.8125 26.988281 0.65625 21.40625 0.65625 C 15.113281 0.65625 10.382812 -0.988281 7.21875 -4.28125 C 4.0625 -7.570312 2.484375 -12.46875 2.484375 -18.96875 C 2.484375 -25.40625 4.273438 -30.285156 7.859375 -33.609375 C 11.441406 -36.941406 16.546875 -38.609375 23.171875 -38.609375 Z M 23.171875 -38.609375 "/></g></g></g><g fill="#8c52ff" fill-opacity="1"><g transform="translate(148.122781, 50.735825)"><g><path d="M 22.9375 -38.609375 C 29.488281 -38.609375 34.546875 -36.9375 38.109375 -33.59375 C 41.679688 -30.25 43.46875 -25.375 43.46875 -18.96875 C 43.46875 -12.570312 41.679688 -7.703125 38.109375 -4.359375 C 34.546875 -1.015625 29.488281 0.65625 22.9375 0.65625 C 16.394531 0.65625 11.347656 -1.003906 7.796875 -4.328125 C 4.253906 -7.660156 2.484375 -12.539062 2.484375 -18.96875 C 2.484375 -25.40625 4.253906 -30.285156 7.796875 -33.609375 C 11.347656 -36.941406 16.394531 -38.609375 22.9375 -38.609375 Z M 22.9375 -29.515625 C 20.332031 -29.515625 18.347656 -28.722656 16.984375 -27.140625 C 15.628906 -25.554688 14.953125 -23.421875 14.953125 -20.734375 L 14.953125 -17.203125 C 14.953125 -14.523438 15.628906 -12.394531 16.984375 -10.8125 C 18.347656 -9.226562 20.332031 -8.4375 22.9375 -8.4375 C 25.550781 -8.4375 27.546875 -9.226562 28.921875 -10.8125 C 30.304688 -12.394531 31 -14.523438 31 -17.203125 L 31 -20.734375 C 31 -23.421875 30.304688 -25.554688 28.921875 -27.140625 C 27.546875 -28.722656 25.550781 -29.515625 22.9375 -29.515625 Z M 22.9375 -29.515625 "/></g></g></g><g fill="#8c52ff" fill-opacity="1"><g transform="translate(196.820719, 50.735825)"><g><path d="M 4.078125 -37.953125 L 16.265625 -37.953125 L 16.265625 -9.703125 L 35.734375 -9.703125 L 35.734375 0 L 4.078125 0 Z M 4.078125 -37.953125 "/></g></g></g><g fill="#8c52ff" fill-opacity="1"><g transform="translate(236.36379, 50.735825)"><g><path d="M 29.515625 0 L 27.90625 -5.34375 L 14.609375 -5.34375 L 13.015625 0 L 0.546875 0 L 14.390625 -37.953125 L 28.578125 -37.953125 L 42.421875 0 Z M 17.15625 -13.84375 L 25.375 -13.84375 L 21.40625 -27.359375 L 21.1875 -27.359375 Z M 17.15625 -13.84375 "/></g></g></g><g fill="#8c52ff" fill-opacity="1"><g transform="translate(282.028484, 50.735825)"><g><path d="M 29.34375 -37.953125 C 31.257812 -37.953125 33.015625 -37.554688 34.609375 -36.765625 C 36.210938 -35.972656 37.484375 -34.859375 38.421875 -33.421875 C 39.359375 -31.992188 39.828125 -30.394531 39.828125 -28.625 C 39.828125 -23.957031 37.710938 -21.015625 33.484375 -19.796875 L 33.484375 -19.578125 C 38.296875 -18.472656 40.703125 -15.3125 40.703125 -10.09375 C 40.703125 -8.101562 40.210938 -6.34375 39.234375 -4.8125 C 38.265625 -3.289062 36.929688 -2.109375 35.234375 -1.265625 C 33.546875 -0.421875 31.691406 0 29.671875 0 L 4.078125 0 L 4.078125 -37.953125 Z M 16.265625 -23.171875 L 24.65625 -23.171875 C 25.46875 -23.171875 26.140625 -23.453125 26.671875 -24.015625 C 27.203125 -24.585938 27.46875 -25.296875 27.46875 -26.140625 L 27.46875 -26.703125 C 27.46875 -27.503906 27.191406 -28.191406 26.640625 -28.765625 C 26.085938 -29.335938 25.425781 -29.625 24.65625 -29.625 L 16.265625 -29.625 Z M 16.265625 -8.828125 L 25.53125 -8.828125 C 26.34375 -8.828125 27.015625 -9.109375 27.546875 -9.671875 C 28.078125 -10.242188 28.34375 -10.953125 28.34375 -11.796875 L 28.34375 -12.359375 C 28.34375 -13.203125 28.078125 -13.90625 27.546875 -14.46875 C 27.015625 -15.039062 26.34375 -15.328125 25.53125 -15.328125 L 16.265625 -15.328125 Z M 16.265625 -8.828125 "/></g></g></g></g></g></g><g clip-path="url(#ff39ac7526)"><g clip-path="url(#068c2ab9f0)"><g transform="matrix(1, 0, 0, 1, 212, 309)"><g clip-path="url(#35e5e28b2e)"><g clip-path="url(#5b26540ae0)"><g clip-path="url(#b79ea32d6e)"><path fill="#8c52ff" d="M 0.898438 0.492188 L 116.582031 0.492188 L 116.582031 15.238281 L 0.898438 15.238281 Z M 0.898438 0.492188 " fill-opacity="1" fill-rule="nonzero"/></g></g></g></g></g></g></g></g></svg>